<svg xmlns="http://www.w3.org/2000/svg" viewBox="0 0 100.14 96.76"><defs><style>.cls-1{fill:#b1def6;}.cls-2{fill:#b0def7;}.cls-3{fill:#fed04b;}.cls-4{fill:#f2c04b;}.cls-5{fill:#fdd153;}.cls-6{fill:#f1c253;}.cls-7{fill:#f3cf6b;}.cls-8{fill:#fff;}</style></defs><title>Recurso 1</title><g id="Capa_2" data-name="Capa 2"><g id="Capa_1-2" data-name="Capa 1"><path class="cls-1" d="M41.28,69.86c-4.47,2.14-3.07,6.26-3,9.7.05,3.24-.9,4.41-4.23,4.3-6.49-.22-13,0-19.49-.07C7.22,83.66,1.18,79,.27,73-.94,65,1.85,60.42,10.13,57.5c2.21-.78,2.87-1.88,3.34-4.14,1.4-6.67,9.39-11.58,15.35-8.9,4.91,2.2,7,.33,9-3.5l9.45-3c7.24.64,13,3.44,15.93,10.62,2.26,5.62,1.42,6.91-4.48,7.06-1.14,0-2.28.24-3.42.36-1.58.38-3.43.47-3,2.9l0,0c-4.45.61-4.42,5-6.55,7.64-1.7.54-2.16,2.33-3.4,3.33-.4-.68-.77-.84-1.1.06Z"/><path class="cls-2" d="M42.34,69.83c1.24-1,1.7-2.79,3.4-3.32,5-.17,4.67-4.85,6.55-7.65l0,0a5.11,5.11,0,0,0,3.08-1.62c1.81-.08,4-.87,5.35-.1,4.39,2.58,6.15-.28,8.08-3.21,9.62-2.34,15.17-.65,17.51,6.19,1.28,3.77,2.63,6.46,6.2,8.94,6.36,4.42,3,14.11-5.53,17l-20.67.19L55.7,86.19c-.83-.08-1.65-.21-2.48-.23-11.93-.32-15-4.47-11.94-16.1l0,0Z"/><path class="cls-3" d="M68.75,54c-1.93,2.93-3.69,5.79-8.08,3.21-1.31-.77-3.54,0-5.35.1l0-1.28c1.14-.12,2.28-.33,3.42-.36,5.9-.15,6.74-1.44,4.48-7.06C60.3,41.4,54.5,38.6,47.26,38A50,50,0,0,1,59.6,15.05C67.34,6.69,77.32,2.61,88.16.18c3.85.43,7.77.57,12,2.4C78.09,13,66.76,29.5,68.75,54Z"/><path class="cls-4" d="M88.16.18C77.32,2.61,67.34,6.69,59.6,15.05A50,50,0,0,0,47.26,38l-9.45,3C42.58,15.49,64.14-2,88.16.18Z"/><path class="cls-5" d="M66.26,86.26l20.67-.19c3.55,3.6,8.29,5.29,13.2,8-4.1,2-8,2.36-12,2.58-2.18-.6-4.42-1-6.52-1.84C76.13,92.64,70,91.69,66.26,86.26Z"/><path class="cls-6" d="M66.26,86.26c3.69,5.43,9.87,6.38,15.38,8.5,2.1.81,4.34,1.24,6.52,1.84-12.26,1-23-2.73-32.46-10.41Z"/><path class="cls-7" d="M52.29,58.86c-1.88,2.8-1.59,7.48-6.55,7.65C47.87,63.91,47.84,59.47,52.29,58.86Z"/><path class="cls-7" d="M55.29,56l0,1.28a5.11,5.11,0,0,1-3.08,1.62C51.86,56.47,53.71,56.38,55.29,56Z"/><path class="cls-8" d="M42.34,69.83l-1.1.06C41.57,69,41.94,69.15,42.34,69.83Z"/></g></g></svg>