<?xml version="1.0" standalone="no"?>
<!DOCTYPE svg PUBLIC "-//W3C//DTD SVG 20010904//EN"
 "http://www.w3.org/TR/2001/REC-SVG-20010904/DTD/svg10.dtd">
<svg version="1.0" xmlns="http://www.w3.org/2000/svg"
 width="455.000000pt" height="121.000000pt" viewBox="0 0 455.000000 121.000000"
 preserveAspectRatio="xMidYMid meet">

<g transform="translate(0.000000,121.000000) scale(0.100000,-0.100000)"
fill="#000000" stroke="none">
<path d="M444 971 c-39 -17 -92 -79 -124 -146 -92 -194 -72 -458 41 -515 68
-35 120 -37 184 -5 31 14 68 42 83 61 31 39 47 43 62 13 16 -28 75 -52 111
-44 16 4 43 20 60 36 17 16 33 29 35 29 3 0 18 -10 33 -21 29 -21 61 -22 117
-4 16 5 23 0 32 -20 11 -23 17 -26 55 -23 l42 3 40 82 c37 75 65 105 65 68 0
-16 55 -34 83 -27 10 2 32 22 51 43 18 22 36 39 39 39 4 0 7 -18 7 -40 0 -118
83 -182 168 -130 30 19 35 19 55 5 39 -27 71 -19 149 37 14 10 20 8 39 -16 31
-39 63 -49 103 -32 49 20 126 122 126 167 0 5 -11 9 -24 9 -17 0 -35 -15 -62
-50 -61 -80 -68 -72 -61 80 6 148 7 147 -83 135 -30 -4 -50 -3 -55 4 -3 6 -23
11 -45 11 -31 0 -44 -6 -68 -34 -27 -31 -62 -120 -62 -158 0 -22 -39 -78 -54
-78 -20 0 -23 21 -18 136 5 100 5 100 -23 122 -52 42 -83 28 -137 -60 -28 -45
-48 -55 -48 -24 0 21 -35 46 -63 46 -26 0 -39 -10 -70 -54 -12 -16 -13 -14 -9
18 4 30 0 37 -21 47 -56 25 -97 -12 -117 -107 -12 -53 -63 -144 -82 -144 -8 0
-9 32 -4 119 7 130 5 136 -51 147 -51 10 -73 -21 -73 -102 0 -56 -5 -75 -31
-120 -17 -30 -34 -54 -38 -54 -27 0 -18 220 16 393 15 77 16 89 3 97 -25 16
-76 11 -93 -8 -27 -30 -58 -168 -64 -287 l-6 -110 -51 -63 c-56 -70 -104 -105
-138 -100 -35 5 -67 94 -68 183 0 80 30 216 61 277 30 59 60 98 76 98 37 0 20
-138 -23 -189 -27 -32 -21 -44 29 -56 69 -18 129 55 121 145 -9 111 -60 171
-148 177 -28 1 -61 -1 -72 -6z m1377 -360 c11 -36 9 -45 -15 -95 -15 -31 -32
-56 -37 -56 -18 0 -9 102 16 178 8 24 24 12 36 -27z"/>
<path d="M2388 973 c-10 -2 -18 -13 -18 -23 0 -11 8 -23 18 -29 15 -9 16 -22
12 -113 -3 -57 -5 -185 -5 -285 0 -168 2 -184 21 -209 31 -42 115 -56 100 -18
-3 8 -9 44 -12 81 l-7 66 24 -8 c95 -30 175 -5 238 75 82 103 106 290 51 388
-33 58 -96 89 -150 73 -22 -6 -53 -28 -74 -51 -39 -44 -56 -50 -56 -22 0 23
-35 57 -73 71 -29 11 -40 12 -69 4z m312 -79 c35 -92 -23 -404 -75 -404 -20 0
-74 110 -82 165 -5 36 -1 55 23 102 32 67 100 163 115 163 5 0 14 -12 19 -26z"/>
<path d="M2888 973 c-22 -6 -23 -39 -2 -51 19 -11 20 -21 9 -312 -10 -276 2
-323 80 -332 l30 -3 -3 84 c-3 84 -3 84 20 76 123 -40 224 18 289 165 20 46
24 71 24 155 0 88 -3 105 -24 142 -34 59 -97 90 -151 74 -22 -6 -53 -28 -74
-51 -39 -44 -56 -50 -56 -22 0 23 -35 57 -73 71 -29 11 -40 12 -69 4z m312
-79 c35 -92 -23 -404 -76 -404 -21 0 -84 135 -84 181 0 41 50 146 99 208 38
48 48 50 61 15z"/>
<path d="M908 829 c-21 -12 -24 -52 -5 -68 44 -36 128 -10 113 36 -11 35 -72
53 -108 32z"/>
<path d="M3997 716 c-24 -27 -52 -79 -93 -175 -22 -50 -29 -60 -35 -45 -4 11
-5 38 -2 60 6 54 -6 76 -57 99 -38 17 -42 17 -57 2 -11 -11 -19 -41 -22 -85
-5 -55 -11 -75 -33 -100 -47 -55 -51 -45 -46 93 7 147 5 151 -76 141 -34 -5
-56 -3 -61 3 -3 6 -23 11 -45 11 -31 0 -44 -6 -69 -35 -35 -40 -61 -119 -61
-186 0 -56 11 -90 40 -119 34 -34 71 -26 152 32 13 10 20 7 43 -20 14 -17 34
-34 44 -37 25 -8 70 11 104 43 l27 26 33 -32 c18 -17 47 -37 66 -43 53 -19 77
7 133 147 27 65 55 125 63 133 13 14 15 9 15 -43 0 -115 -62 -300 -109 -326
-10 -5 -26 -7 -37 -4 -10 2 -26 0 -34 -6 -27 -17 13 -45 65 -44 126 3 225 144
225 324 0 88 -16 138 -55 177 -41 41 -85 44 -118 9z m-471 -123 c6 -22 -43
-133 -58 -133 -16 0 -4 119 18 180 4 12 8 11 20 -5 8 -11 17 -30 20 -42z"/>
</g>
</svg>
