<svg id="Capa_1" data-name="Capa 1" xmlns="http://www.w3.org/2000/svg" viewBox="0 0 100.14 96.76"><defs><style>.cls-1{fill:#b1def6;}.cls-2{fill:#b0def7;}.cls-3{fill:#fed04b;}.cls-4{fill:#f2c04b;}.cls-5{fill:#fdd153;}.cls-6{fill:#f1c253;}.cls-7{fill:#f3cf6b;}.cls-8{fill:#fff;}</style></defs><title>moon-cloudy</title><path class="cls-1" d="M221,306c-4.46,2.13-3.06,6.25-3,9.7.05,3.23-.9,4.41-4.24,4.3-6.49-.22-13,0-19.48-.07-7.32-.13-13.36-4.82-14.27-10.83-1.21-8,1.58-12.54,9.86-15.46,2.2-.78,2.87-1.88,3.34-4.14,1.4-6.67,9.39-11.58,15.35-8.91,4.9,2.2,7,.34,9-3.49l9.44-3c7.25.63,13,3.44,15.94,10.62,2.26,5.61,1.42,6.91-4.48,7.06-1.14,0-2.28.23-3.42.36-1.58.38-3.43.46-3.05,2.9l.05,0c-4.45.61-4.42,5-6.55,7.65-1.7.53-2.17,2.32-3.4,3.33-.4-.68-.77-.85-1.1.05Z" transform="translate(-179.74 -236.13)"/><path class="cls-2" d="M222.08,306c1.23-1,1.7-2.8,3.4-3.33,5-.17,4.67-4.84,6.55-7.65l-.05,0a5.16,5.16,0,0,0,3.08-1.62c1.81-.08,4-.87,5.35-.1,4.39,2.58,6.15-.28,8.08-3.22,9.62-2.34,15.16-.65,17.5,6.2,1.29,3.76,2.63,6.45,6.2,8.93,6.37,4.43,3,14.11-5.52,17l-20.67.19-10.56-.07c-.83-.08-1.65-.21-2.48-.23-11.93-.33-15-4.47-12-16.1l0,0Z" transform="translate(-179.74 -236.13)"/><path class="cls-3" d="M248.49,290.09c-1.93,2.94-3.69,5.8-8.08,3.22-1.31-.77-3.54,0-5.35.09l0-1.27c1.14-.13,2.28-.33,3.42-.36,5.9-.15,6.74-1.45,4.48-7.06-2.89-7.18-8.69-10-15.94-10.62a50,50,0,0,1,12.35-22.91c7.74-8.36,17.72-12.45,28.56-14.88,3.85.43,7.77.57,12,2.41C257.83,249.11,246.5,265.62,248.49,290.09Z" transform="translate(-179.74 -236.13)"/><path class="cls-4" d="M267.9,236.3c-10.84,2.43-20.82,6.52-28.56,14.88A50,50,0,0,0,227,274.09l-9.44,3C222.32,251.62,243.88,234.16,267.9,236.3Z" transform="translate(-179.74 -236.13)"/><path class="cls-5" d="M246,322.39l20.67-.19c3.55,3.6,8.28,5.29,13.2,7.95-4.1,2-8,2.35-12,2.57-2.18-.6-4.42-1-6.52-1.84C255.87,328.77,249.69,327.81,246,322.39Z" transform="translate(-179.74 -236.13)"/><path class="cls-6" d="M246,322.39c3.69,5.42,9.87,6.38,15.38,8.49,2.1.81,4.34,1.24,6.52,1.84-12.26,1-23-2.73-32.46-10.4Z" transform="translate(-179.74 -236.13)"/><path class="cls-7" d="M232,295c-1.88,2.81-1.59,7.48-6.55,7.65C227.61,300,227.58,295.59,232,295Z" transform="translate(-179.74 -236.13)"/><path class="cls-7" d="M235,292.13l0,1.27A5.12,5.12,0,0,1,232,295C231.6,292.59,233.45,292.51,235,292.13Z" transform="translate(-179.74 -236.13)"/><path class="cls-8" d="M222.08,306,221,306C221.31,305.11,221.68,305.28,222.08,306Z" transform="translate(-179.74 -236.13)"/></svg>