<svg xmlns="http://www.w3.org/2000/svg" xmlns:xlink="http://www.w3.org/1999/xlink" viewBox="0 0 2500 1500.2"><defs><filter id="b" color-interpolation-filters="sRGB"><feGaussianBlur stdDeviation="6.187"/></filter><filter id="d" height="1.211" width="1.084" color-interpolation-filters="sRGB" y="-.106" x="-.042"><feGaussianBlur stdDeviation="8.465"/></filter><filter id="e" height="1.223" width="1.082" color-interpolation-filters="sRGB" y="-.112" x="-.041"><feGaussianBlur stdDeviation="7.374"/></filter><filter id="f" color-interpolation-filters="sRGB"><feGaussianBlur stdDeviation="7.71"/></filter><filter id="g" color-interpolation-filters="sRGB"><feGaussianBlur stdDeviation="7.71"/></filter><linearGradient id="a" y2="-136.26" gradientUnits="userSpaceOnUse" x2="-405.59" gradientTransform="translate(2678.7 -1572.3)" y1="1363.9" x1="-405.59"><stop style="stop-color:#394a58" offset="0"/><stop style="stop-color:#0d1318" offset="1"/></linearGradient></defs><g transform="translate(-1023.1 1708.54)"><path style="color:#000;fill:url(#a)" d="M1023.1-1708.5h2500v1500.2h-2500z"/><g id="c"><path style="color:#000;filter:url(#b);fill:#fea" transform="matrix(.1214 0 0 .1214 2505.312 -1663.48)" d="m-380.22 952.3-93.679-59.787-70.619 85.809 27.912-107.57-103.43-40.647 110.93-6.695 6.695-110.93 40.647 103.43 107.57-27.912-85.809 70.619 59.787 93.679z"/><path style="stroke-linejoin:round;color:#000;stroke:#fff;stroke-width:4.4076;fill:none" d="m-389.03 896.89-12.056 36.031-38.489-5.042 31.631 23.616-10.621 41.482 30.937-32.912 37.015 30.647-26.954-42.37 31.523-20.942-34.531 4.068-8.456-34.577z" transform="translate(2579.6 -1880.9) scale(.34032)"/></g><use style="stroke:#a40000;stroke-width:3.5714;fill:#a40000" xlink:href="#c" transform="rotate(-159.595 939.624 -724.84) scale(.28)" height="1052.362" width="744.094"/><use style="stroke:#a40f00;stroke-width:1.4286;fill:#a40f00" xlink:href="#c" transform="scale(-.7) rotate(-84.332 1250.187 3176.514)" height="1052.362" width="744.094"/><use style="stroke:#a41e00;stroke-width:1.4286;fill:#a41e00" xlink:href="#c" transform="rotate(-39.83 2966.259 -2205.194) scale(.7)" height="1052.362" width="744.094"/><use style="stroke:#a42c00;stroke-width:3.5714;fill:#a42c00" xlink:href="#c" transform="scale(.28) rotate(-67.543 2250.945 -8022.904)" height="1052.362" width="744.094"/><use style="stroke:#a43b00;stroke-width:2.0408;fill:#a43b00" xlink:href="#c" transform="scale(-.49) rotate(-41.559 5688.09 8561.509)" height="1052.362" width="744.094"/><use style="stroke:#a44a00;stroke-width:1.4286;fill:#a44a00" xlink:href="#c" transform="rotate(-157.384 2414.118 -1013.138) scale(.7)" height="1052.362" width="744.094"/><use style="stroke:#a45900;stroke-width:1.4286;fill:#a45900" xlink:href="#c" transform="rotate(179.694 2462.985 -731.877) scale(.7)" height="1052.362" width="744.094"/><use style="stroke:#a46700;stroke-width:1.4286;fill:#a46700" xlink:href="#c" transform="rotate(137.887 2085.526 -872.116) scale(.7)" height="1052.362" width="744.094"/><use style="stroke:#a47600;stroke-width:2.0408;fill:#a47600" xlink:href="#c" transform="rotate(-134.534 1563.333 -754.394) scale(.49)" height="1052.362" width="744.094"/><use style="stroke:#a48500;stroke-width:1.4286;fill:#a48500" xlink:href="#c" transform="rotate(143.367 1528.435 -1161.852) scale(.7)" height="1052.362" width="744.094"/><use style="stroke:#a40000;stroke-width:2.0408;fill:#a40000" xlink:href="#c" transform="scale(-.49) rotate(-62.068 1378.092 5738.374)" height="1052.362" width="744.094"/><use style="stroke:#a40f00;stroke-width:2.8571;fill:#a40f00" xlink:href="#c" transform="rotate(104.403 2393.74 -94.648) scale(.35)" height="1052.362" width="744.094"/><use style="stroke:#a41e00;stroke-width:1.4286;fill:#a41e00" xlink:href="#c" transform="rotate(160.346 2168.784 -970.8) scale(.7)" height="1052.362" width="744.094"/><use style="stroke:#a42c00;stroke-width:1.4286;fill:#a42c00" xlink:href="#c" transform="scale(.7) rotate(-69.518 3412.04 -3064.138)" height="1052.362" width="744.094"/><use style="stroke:#a43b00;stroke-width:1.4286;fill:#a43b00" xlink:href="#c" transform="scale(-.7) rotate(45.531 -2238.104 -5624.805)" height="1052.362" width="744.094"/><use style="stroke:#a44a00;stroke-width:1.4286;fill:#a44a00" xlink:href="#c" transform="scale(.7) rotate(-88.544 2609.113 -778.18)" height="1052.362" width="744.094"/><use style="stroke:#a45900;stroke-width:2.0408;fill:#a45900" xlink:href="#c" transform="scale(-.49) rotate(-62.419 2593.023 6078.266)" height="1052.362" width="744.094"/><use style="stroke:#a46700;stroke-width:1.4286;fill:#a46700" xlink:href="#c" transform="scale(-.7) rotate(10.234 -20802.132 -29788.725)" height="1052.362" width="744.094"/><use style="stroke:#a47600;stroke-width:1.4286;fill:#a47600" xlink:href="#c" transform="rotate(130.706 2555.413 -689.223) scale(.7)" height="1052.362" width="744.094"/><use style="stroke:#a48500;stroke-width:1.4286;fill:#a48500" xlink:href="#c" transform="rotate(-165.786 1813.317 -879.956) scale(.7)" height="1052.362" width="744.094"/><use style="stroke:#a40000;stroke-width:1.4286;fill:#a40000" xlink:href="#c" transform="rotate(143.127 2064.429 -1169.104) scale(.7)" height="1052.362" width="744.094"/><use style="stroke:#a40f00;stroke-width:1.4286;fill:#a40f00" xlink:href="#c" transform="rotate(-59.601 2253.785 -1031.11) scale(.7)" height="1052.362" width="744.094"/><use style="stroke:#a41e00;stroke-width:3.5714;fill:#a41e00" xlink:href="#c" transform="scale(-.28) rotate(78.304 -6687.406 -8306.235)" height="1052.362" width="744.094"/><use style="stroke:#a42c00;stroke-width:1.4286;fill:#a42c00" xlink:href="#c" transform="rotate(-37.453 814.8 -451.48) scale(.7)" height="1052.362" width="744.094"/><use style="stroke:#a43b00;stroke-width:1.4286;fill:#a43b00" xlink:href="#c" transform="scale(.7) rotate(-68.334 1624.056 -1349.17)" height="1052.362" width="744.094"/><use style="stroke:#a44a00;stroke-width:1.4286;fill:#a44a00" xlink:href="#c" transform="scale(.7) rotate(-8.256 1616.382 -2431.29)" height="1052.362" width="744.094"/><use style="stroke:#a45900;stroke-width:1.4286;fill:#a45900" xlink:href="#c" transform="rotate(110.08 1482.226 -1079.015) scale(.7)" height="1052.362" width="744.094"/><use style="stroke:#a46700;stroke-width:1.4286;fill:#a46700" xlink:href="#c" transform="rotate(-21.113 1265.04 -322.446) scale(.7)" height="1052.362" width="744.094"/><use style="stroke:#a47600;stroke-width:3.5714;fill:#a47600" xlink:href="#c" transform="rotate(73.272 2501.797 451.177) scale(.28)" height="1052.362" width="744.094"/><use style="stroke:#a48500;stroke-width:2.0408;fill:#a48500" xlink:href="#c" transform="scale(-.49) rotate(-45.474 505.27 10810.299)" height="1052.362" width="744.094"/><use style="stroke:#a40000;stroke-width:1.4286;fill:#a40000" xlink:href="#c" transform="rotate(-108.442 2186.17 -945.721) scale(.7)" height="1052.362" width="744.094"/><use style="stroke:#a40f00;stroke-width:1.4286;fill:#a40f00" xlink:href="#c" transform="scale(-.7) rotate(-45.322 1337.428 8213.442)" height="1052.362" width="744.094"/><use style="stroke:#a41e00;stroke-width:1.4286;fill:#a41e00" xlink:href="#c" transform="rotate(88.558 2635.45 -465.184) scale(.7)" height="1052.362" width="744.094"/><use style="stroke:#a42c00;stroke-width:2.0408;fill:#a42c00" xlink:href="#c" transform="rotate(13.571 1190.155 6042.948) scale(.49)" height="1052.362" width="744.094"/><use style="stroke:#a43b00;stroke-width:3.5714;fill:#a43b00" xlink:href="#c" transform="rotate(-55.85 1181.948 -1553.397) scale(.28)" height="1052.362" width="744.094"/><use style="stroke:#a44a00;stroke-width:1.4286;fill:#a44a00" xlink:href="#c" transform="rotate(84.908 1925.703 -188.74) scale(.7)" height="1052.362" width="744.094"/><use style="stroke:#a45900;stroke-width:1.4286;fill:#a45900" xlink:href="#c" transform="scale(.7) rotate(28.162 1428.818 -2422.616)" height="1052.362" width="744.094"/><use style="stroke:#a46700;stroke-width:3.5714;fill:#a46700" xlink:href="#c" transform="scale(.28) rotate(-31.697 6604.54 -15691.027)" height="1052.362" width="744.094"/><use style="stroke:#a47600;stroke-width:1.4286;fill:#a47600" xlink:href="#c" transform="rotate(86.835 2341.411 11.465) scale(.7)" height="1052.362" width="744.094"/><use style="stroke:#a48500;stroke-width:3.5714;fill:#a48500" xlink:href="#c" transform="rotate(-6.835 1849.424 -21703.726) scale(.28)" height="1052.362" width="744.094"/><use style="stroke:#a40000;stroke-width:2.0408;fill:#a40000" xlink:href="#c" transform="rotate(60.426 2257.868 417.614) scale(.49)" height="1052.362" width="744.094"/><use style="stroke:#a40f00;stroke-width:1.4286;fill:#a40f00" xlink:href="#c" transform="rotate(28.675 1385.24 -99.907) scale(.7)" height="1052.362" width="744.094"/><use style="stroke:#a41e00;stroke-width:1.4286;fill:#a41e00" xlink:href="#c" transform="matrix(-.6932 -.09731 .09731 -.6932 4770.5 -1169)" height="1052.362" width="744.094"/><use style="stroke:#a42c00;stroke-width:1.4286;fill:#a42c00" xlink:href="#c" transform="scale(.7) rotate(-21.225 2287.82 -4190.544)" height="1052.362" width="744.094"/><use style="stroke:#a43b00;stroke-width:2.0408;fill:#a43b00" xlink:href="#c" transform="rotate(-141.881 1996.577 -1484.64) scale(.49)" height="1052.362" width="744.094"/><use style="stroke:#a44a00;stroke-width:1.4286;fill:#a44a00" xlink:href="#c" transform="rotate(92.17 1874.446 -732.357) scale(.7)" height="1052.362" width="744.094"/><use style="stroke:#a45900;stroke-width:1.4286;fill:#a45900" xlink:href="#c" transform="rotate(25.234 3386.532 1908.517) scale(.7)" height="1052.362" width="744.094"/><use style="stroke:#a46700;stroke-width:1.4286;fill:#a46700" xlink:href="#c" transform="scale(.7) rotate(-76.612 3292.287 -2107.704)" height="1052.362" width="744.094"/><use style="stroke:#a47600;stroke-width:3.5714;fill:#a47600" xlink:href="#c" transform="rotate(-135.377 1006.244 -678.449) scale(.28)" height="1052.362" width="744.094"/><use style="stroke:#a48500;stroke-width:1.4286;fill:#a48500" xlink:href="#c" transform="rotate(72.79 1636.708 -353.018) scale(.7)" height="1052.362" width="744.094"/><use style="stroke:#a40000;stroke-width:2.8571;fill:#a40000" xlink:href="#c" transform="scale(.35) rotate(-74.126 2826.347 -5026.446)" height="1052.362" width="744.094"/><use style="stroke:#a40f00;stroke-width:2.8571;fill:#a40f00" xlink:href="#c" transform="rotate(26.885 3474.872 619.297) scale(.35)" height="1052.362" width="744.094"/><use style="stroke:#a41e00;stroke-width:1.4286;fill:#a41e00" xlink:href="#c" transform="rotate(91.295 1449.021 -985.473) scale(.7)" height="1052.362" width="744.094"/><use style="stroke:#a42c00;stroke-width:1.4286;fill:#a42c00" xlink:href="#c" transform="scale(-.7) rotate(16.238 -13724.102 -23848.817)" height="1052.362" width="744.094"/><use style="stroke:#a43b00;stroke-width:1.4286;fill:#a43b00" xlink:href="#c" transform="rotate(-11.25 4538.216 -986.569) scale(.7)" height="1052.362" width="744.094"/><use style="stroke:#a44a00;stroke-width:1.4286;fill:#a44a00" xlink:href="#c" transform="rotate(-38.708 1719.35 -3544.106) scale(.7)" height="1052.362" width="744.094"/><use style="stroke:#a45900;stroke-width:1.4286;fill:#a45900" xlink:href="#c" transform="rotate(-154.945 1867.434 -1304.506) scale(.7)" height="1052.362" width="744.094"/><use style="stroke:#a46700;stroke-width:1.4286;fill:#a46700" xlink:href="#c" transform="scale(-.7) rotate(-52.57 2246.926 4157.057)" height="1052.362" width="744.094"/><use style="stroke:#a47600;stroke-width:1.4286;fill:#a47600" xlink:href="#c" transform="rotate(-138.82 1763.574 -1327.53) scale(.7)" height="1052.362" width="744.094"/><use style="stroke:#a48500;stroke-width:2.0408;fill:#a48500" xlink:href="#c" transform="rotate(103.5 1331.271 -343.034) scale(.49)" height="1052.362" width="744.094"/><use style="stroke:#a40000;stroke-width:1.4286;fill:#a40000" xlink:href="#c" transform="rotate(-57.672 2578.328 -1229.69) scale(.7)" height="1052.362" width="744.094"/><use style="stroke:#a40f00;stroke-width:2.8571;fill:#a40f00" xlink:href="#c" transform="scale(.35) rotate(5.187 22278.988 41178.898)" height="1052.362" width="744.094"/><use style="stroke:#a41e00;stroke-width:3.5714;fill:#a41e00" xlink:href="#c" transform="rotate(158.39 946.048 -495.816) scale(.28)" height="1052.362" width="744.094"/><use style="stroke:#a42c00;stroke-width:1.4286;fill:#a42c00" xlink:href="#c" transform="rotate(-169.505 2576.884 -811.67) scale(.7)" height="1052.362" width="744.094"/><use style="stroke:#a43b00;stroke-width:1.4286;fill:#a43b00" xlink:href="#c" transform="rotate(145.309 2587.688 -939.563) scale(.7)" height="1052.362" width="744.094"/><use style="stroke:#a44a00;stroke-width:1.4286;fill:#a44a00" xlink:href="#c" transform="scale(-.7) rotate(-1.238 130746.9 241466.637)" height="1052.362" width="744.094"/><use style="stroke:#a45900;stroke-width:2.8571;fill:#a45900" xlink:href="#c" transform="rotate(125.28 2025.77 -365.04) scale(.35)" height="1052.362" width="744.094"/><use style="stroke:#a46700;stroke-width:1.4286;fill:#a46700" xlink:href="#c" transform="scale(.7) rotate(7.684 -2333.138 4047.223)" height="1052.362" width="744.094"/><use style="stroke:#a47600;stroke-width:3.5714;fill:#a47600" xlink:href="#c" transform="rotate(-175.534 1357.44 -844.922) scale(.28)" height="1052.362" width="744.094"/><use style="stroke:#a48500;stroke-width:2.0408;fill:#a48500" xlink:href="#c" transform="rotate(-53.2 863.39 -1238.11) scale(.49)" height="1052.362" width="744.094"/><use style="stroke:#a40000;stroke-width:2.0408;fill:#a40000" xlink:href="#c" transform="rotate(55.281 1483.693 797.784) scale(.49)" height="1052.362" width="744.094"/><use style="stroke:#a40f00;stroke-width:1.4286;fill:#a40f00" xlink:href="#c" transform="scale(.7) rotate(-82.737 3505.18 -2025.215)" height="1052.362" width="744.094"/><use style="stroke:#a41e00;stroke-width:1.4286;fill:#a41e00" xlink:href="#c" transform="rotate(88.213 2051.48 -748.664) scale(.7)" height="1052.362" width="744.094"/><use style="stroke:#a42c00;stroke-width:1.4286;fill:#a42c00" xlink:href="#c" transform="rotate(121.663 1579.619 -1499.755) scale(.7)" height="1052.362" width="744.094"/><use style="stroke:#a43b00;stroke-width:1.4286;fill:#a43b00" xlink:href="#c" transform="rotate(26.674 802.25 2414.309) scale(.7)" height="1052.362" width="744.094"/><use style="stroke:#a44a00;stroke-width:1.4286;fill:#a44a00" xlink:href="#c" transform="rotate(110.984 2016.383 -1281.962) scale(.7)" height="1052.362" width="744.094"/><use style="stroke:#a45900;stroke-width:1.4286;fill:#a45900" xlink:href="#c" transform="rotate(-33.045 1357.006 -2849.798) scale(.7)" height="1052.362" width="744.094"/><use style="stroke:#a46700;stroke-width:1.4286;fill:#a46700" xlink:href="#c" transform="rotate(-86.66 1567.115 -689.571) scale(.7)" height="1052.362" width="744.094"/><use style="stroke:#a47600;stroke-width:3.5714;fill:#a47600" xlink:href="#c" transform="rotate(-121.292 1092.62 -1389.622) scale(.28)" height="1052.362" width="744.094"/><use style="stroke:#a48500;stroke-width:1.4286;fill:#a48500" xlink:href="#c" transform="rotate(129.475 1681.47 -666.347) scale(.7)" height="1052.362" width="744.094"/><use style="stroke:#a40000;stroke-width:2.0408;fill:#a40000" xlink:href="#c" transform="scale(.49) rotate(16.278 8654.408 5436.01)" height="1052.362" width="744.094"/><use style="stroke:#a40f00;stroke-width:3.5714;fill:#a40f00" xlink:href="#c" transform="matrix(.24369 -.13789 .13789 .24369 1098 389.36)" height="1052.362" width="744.094"/><use style="stroke:#a41e00;stroke-width:1.4286;fill:#a41e00" xlink:href="#c" transform="scale(-.7) rotate(51.47 -2473.337 -5274.75)" height="1052.362" width="744.094"/><use style="stroke:#a42c00;stroke-width:1.4286;fill:#a42c00" xlink:href="#c" transform="scale(-.7) rotate(-52.713 3761.056 4207.72)" height="1052.362" width="744.094"/><use style="stroke:#a43b00;stroke-width:2.8571;fill:#a43b00" xlink:href="#c" transform="rotate(149.381 2144.705 -579.72) scale(.35)" height="1052.362" width="744.094"/><use style="stroke:#a44a00;stroke-width:1.4286;fill:#a44a00" xlink:href="#c" transform="rotate(-107.945 2164.497 -1700.015) scale(.7)" height="1052.362" width="744.094"/><use style="stroke:#a45900;stroke-width:1.4286;fill:#a45900" xlink:href="#c" transform="scale(-.7) rotate(-57.435 1612.72 5132.479)" height="1052.362" width="744.094"/><use style="stroke:#a46700;stroke-width:1.4286;fill:#a46700" xlink:href="#c" transform="rotate(46.122 1416.44 -733.24) scale(.7)" height="1052.362" width="744.094"/><use style="stroke:#a47600;stroke-width:1.4286;fill:#a47600" xlink:href="#c" transform="rotate(55.128 1823.653 -1298.105) scale(.7)" height="1052.362" width="744.094"/><use style="stroke:#a48500;stroke-width:1.4286;fill:#a48500" xlink:href="#c" transform="rotate(-159.251 2266 -870.102) scale(.7)" height="1052.362" width="744.094"/><use style="stroke:#a40000;stroke-width:1.4286;fill:#a40000" xlink:href="#c" transform="rotate(17.789 1451.41 -661.174) scale(.7)" height="1052.362" width="744.094"/><use style="stroke:#a40f00;stroke-width:1.4286;fill:#a40f00" xlink:href="#c" transform="rotate(-76.406 1772.234 -1852.308) scale(.7)" height="1052.362" width="744.094"/><use style="stroke:#a41e00;stroke-width:1.4286;fill:#a41e00" xlink:href="#c" transform="rotate(-1.985 -1309.57 12395.114) scale(.7)" height="1052.362" width="744.094"/><use style="stroke:#a42c00;stroke-width:1.4286;fill:#a42c00" xlink:href="#c" transform="rotate(-52.723 1899.355 -445.172) scale(.7)" height="1052.362" width="744.094"/><use style="stroke:#a43b00;stroke-width:3.5714;fill:#a43b00" xlink:href="#c" transform="rotate(-59.16 1510.304 -2136.766) scale(.28)" height="1052.362" width="744.094"/><use style="stroke:#a44a00;stroke-width:3.5714;fill:#a44a00" xlink:href="#c" transform="rotate(-120.823 1724.813 -1614.563) scale(.28)" height="1052.362" width="744.094"/><use style="stroke:#a45900;stroke-width:1.4286;fill:#a45900" xlink:href="#c" transform="scale(.7) rotate(-34.372 4050.454 -1439.137)" height="1052.362" width="744.094"/><use style="stroke:#a46700;stroke-width:1.4286;fill:#a46700" xlink:href="#c" transform="rotate(-125.845 1876.671 -1095.793) scale(.7)" height="1052.362" width="744.094"/><use style="stroke:#a47600;stroke-width:3.5714;fill:#a47600" xlink:href="#c" transform="scale(-.28) rotate(-60.722 509.42 7836.797)" height="1052.362" width="744.094"/><use style="stroke:#a48500;stroke-width:1.4286;fill:#a48500" xlink:href="#c" transform="scale(.7) rotate(-72.928 2122.646 -1767.953)" height="1052.362" width="744.094"/><path d="M-417.43 938.36c-64.24 0-116.31 52.072-116.31 116.31 0 64.24 52.072 116.31 116.31 116.31 28.918 0 55.371-10.567 75.719-28.031-8.153 2.369-16.77 3.625-25.688 3.625-50.764 0-91.906-41.142-91.906-91.906s41.142-91.906 91.906-91.906a91.906 91.906 0 0 1 25.75 3.656c-20.356-17.497-46.833-28.062-75.781-28.062z" style="color:#000;filter:url(#b);fill:#fea" transform="matrix(1.0798 .09703 -.0969 1.0782 3187.2 -2459.4)"/><path style="stroke-linejoin:round;color:#000;stroke:#fff5cb;stroke-linecap:round;stroke-width:6;fill:none" d="M2707.5-1451.3c-54.953-49.026-214.07 78.973-33.761 209.04-272.76 79.389-198.44-371.78 33.761-209.04z"/><path style="stroke-linejoin:round;color:#000;stroke:#fff5cb;stroke-linecap:round;stroke-width:6;fill:none" d="M2704.8-1440.6c-54.953-49.026-247.06 112.71-12.637 216.37-320.95 24.76-219.56-379.11 12.637-216.37z"/><path style="color:#000;filter:url(#d);fill:#e6e6e6" d="M193.35 613.36c-17.156-49.346 68.117-57.476 75.888-12.586-9.923-44.925 42.024-101.03 83.52-62.121 25.772 31.155-2.516 89.119 54.754 82.922 35.101 14.635 27.496 61.1 74.035 40.94 35.305-.945 125.53-5.741 114.89 40.48-155.14 7.029-312 25.789-467.43 6.909-65.014-3.549 88.827 8.106 27.008-20.991-30.289-39.571 30.833-56.071 37.339-75.552z" transform="translate(2707.4 -1545.8)"/><path style="color:#000;stroke:#fff;stroke-width:6;fill:none" d="M184.16 607.58c-12.364-24.075 20.281-44.506 45.259-39.083 15.662-2.666 35.91 27.583 32.63 19.791-2.947-32.349 31.703-70.779 70.635-59.986 28.708 8.626 30.686 38.137 33.281 60.576.326 28.781 35.51 22.46 54.95 33.866 15.412 13.221 26.593 43.812 54.81 33.244 29.468-6.343 60.779-3.059 90.607.16 24.871-3.855 59.538 39.494 18.591 35.402-159.04 7.637-319.02 22.187-477.95 5.142-.183-.857 71.412 3.987 43.61-15.705-22.351-13.18-14.358-40.77 7.001-50.857 9.686-6.635 20.655-12.702 26.578-22.551z" transform="translate(2707.4 -1545.8)"/><path style="fill:#fff" d="M360.89 660.33c-1.054 15.675 3.162 41.277 49.011 19.855s-36.363 18.287-49.011-19.855zM275.02 598.45c5.843 22.273 22.238 56.126 67.763 8.93 45.01-46.662-41.317 58.512-67.763-8.93zM171.25 650.5c-10.125 15.451-21.467 41.95 31.234 30.278 52.701-11.671-42.559 10.554-31.234-30.278z" transform="translate(2707.4 -1545.8)"/><g><path style="color:#000;filter:url(#e);fill:#e6e6e6" d="M-18.399 224.78c-13.748-13.116-11.778-38.736 6.66-46.717 17.357-10.438 45.435-4.837 50.838 16.487.3 8.336 2.134 18.124 6.889 5.495 15.015-17.328 37.554 3.61 44.602 18.605 10.234 16.4 25.168-10.934 40.927-5.533 21.563-1.533 45.088 12.405 48.17 34.555-2.264 10.279-4.749 25.015 11.166 19.61 18.983 2.838 39.248 21.32 32.19 41.574-7.48 21.365-35.29 27.586-54.652 18.865-20.274-6.657-41.535-20.694-63.502-12.28-16.311 10.045-36.498 8.751-54.76 12.397-32.91 4.007-70.866 5.869-98.045-16.108-7.417-7.834-14.14-27.335-21.508-8.617-25.164 27.14-68.091 27.234-100.56 14.068-12.337-5.75-26.228-11.744-33.958-23.278-8.867-19.908 4.389-41.1 16.697-56.371 11.516-10.552-.227-32.907 20.87-37.273 22.556-7.685 54.136.034 63.35 23.617.726 14.238 12.564-10.04 22.004-9.973 19.523-8.932 50.146-9.527 62.619 10.878z" transform="translate(2913.8 -1582.3)"/><path style="color:#000;stroke:#fff;stroke-width:6;fill:none" d="M-17.634 231.13c-24.039-23.097 7.42-62.743 35.334-50.445 18.178 4.507 17.483 41.925 34.494 19.727 27.585 2.794 39.369 44.723 69.721 18.091 29.78-4.535 49.793 27.229 49.513 51.18 24.786 4.363 56.091 32.825 30.377 57.322-25.53 23.702-54.302-3.152-80.936-7.383-26.039-2.581-48.798 13.683-74.941 13.526-33.588 4.495-75.745 5.979-98.273-25.22-19.173-10.685-32.849 28.608-58.158 22.59-29.615 2.56-63.785-7.211-82.181-32.416-11.35-28.15 18.03-48.405 22.447-74.1 9.226-32.194 52.362-23.041 68.444-1.524 15.06 18.363 42.274-22.773 66.75-5.245 7.126 2.395 13.621 7.057 17.408 13.897z" transform="translate(2913.8 -1582.3)"/><path style="fill:#fff" d="M.483 269.67c-10.07 13.21-21.33 38.22 31.247 45.87 52.577 7.65-42.457-4.92-31.247-45.87zM74.755 219.5c-11.845 21.254-24.155 59.002 44.821 55.91 68.196-3.057-74.055 14.788-44.821-55.91zM-112.34 253.43c-10.614 16.336-22.503 44.353 32.741 32.013s-44.613 11.158-32.741-32.013z" transform="translate(2913.8 -1582.3)"/></g><g><path style="color:#000;filter:url(#f);fill:#e6e6e6" transform="matrix(.39702 0 0 .39545 2023.83 -1452.95)" d="M-1118.1 1213.7c-24.616-24.874-37.134-117.03 15.636-93.245 9.593 16.693 11.2 39.254 12.096 5.984 14.197-67.04 109.12-80.725 144.51-23.266 18.436 15.716 27.464 81.08 18.337 76.234-8.247-47.39 45.907-109.04 93.865-80.167 41.855 30.887 43.839 95.442 15.575 136.1 42.345-18.992 109.24-17.428 136.74 27.438 21.552 55.03 19.395 119.24-.885 174.2 4.6 25.524-64.706 53.994-20.624 28.944 83.942-17.718 179.08-1.51 245.47 55.042 26.488 15.368 39.284 79.9 62.943 31.26 37.286-20.179 88.287-20.696 124.8 1.781 30.734 20.697 44.606 83.45 28.623 106.57-34.036-22.194-78.559-21.87-118.06-27.968-87.694-8.619-175.99-14.297-264.05-7.894-60.956 22.77-127.96 16.934-191.91 22.607-114.05 4.714-227.89 14.677-342.18 10.433-84.663 3.391-168.66-8.838-253.35-6.481-34.334 1.337-77.224 9.007-63.47-40.347-8.518-54.173 47.56-69.325 89.74-69.241 46.38-.684 90.476 15.808 135.82 22.921 26.121 17.067-7.659-53.803 1.648-60.567-7.214-48.758 19.205-104.59 72.104-111.7 31.886-10.395 87.254-7.543 105.23-21.744-44.282-29.657-62.79-85.224-52.61-136.48a221.886 221.886 0 0 1 3.997-20.405z"/><path style="color:#000;stroke:#fff;stroke-width:6;fill:none" d="M-135.01 1001.2c-20.881-10.969-2.557-35.104 12.62-34.289 9.258-21.729 49.773-21.089 60.901-1.23 6.562 5.434 4.244 25.984 6.602 8.692 9.052-21.877 55.356-15.76 50.377 8.673-5.448 14.263 1.598 29.709 21.464 21.665 27.704 1.915 37.018 26.544 33.672 46.349 3.968 13.556-11.921 35.536-15.861 38.286 30.343-8.777 63.596-1.7 91.338 10.019 12.475 16.106 36.986 28.138 56.045 12.753 22.944-3.612 49.943 13.265 46.11 33.79-18.94 16.64-45.866-8.982-69.58-2.06-39.438-2.887-79.542-3.74-118.42 3.404-63.376 5.098-127.13 6.33-190.76 7.043-28.512-.2-57.004-1.27-85.464-2.673-16.36 4.34-44.085 2.39-47.235-14.849 3.098-20.117 32.154-26.225 52.558-22.569 14.092.225 41.672 16.293 43.276-4.213-4.082-18.333 1.128-41.99 26.296-46.976 16.224-2.463 54.657-2.362 31.596-22.103-12.052-10.778-8.986-26.626-5.541-39.714z" transform="translate(1713 -1967.8)"/><path style="fill:#fff" d="M-10.951 1105.1c-1.105 16.573 3.315 43.642 51.376 20.992s-38.117 19.335-51.376-20.992zM-53.703 1020c6.125 23.548 23.311 59.34 71.033 9.442 47.182-49.335-43.311 61.863-71.033-9.442zM-136.64 1084.3c-10.614 16.336-22.503 44.353 32.741 32.013s-44.613 11.158-32.741-32.013z" transform="translate(1713 -1967.8)"/></g><g><path style="color:#000;filter:url(#f);fill:#e6e6e6" transform="matrix(.39702 0 0 .39545 1312.33 -1941.35)" d="M472.88 1125.3c2.143-73.006-56-132.54-128.46-135.67-76.42-8.885-154.56-12.585-228.52 14.943-60.054 27.53-129.27 90.137-126.95 153.87-20.94-11.999-64.442-26.288-95.017-13.258-36.562 25.882-43.801 68.802-39.775 110.49.816 83.329 54.167 167.46 137 190.03 36.225 12.751 103.77 29.511 121.53-13.258-23.742 3.857-50.53 48.621-57.452 79.55-16.79 49.014-5.592 114.26 50.823 130.37 56.302 19.218 115.68 18.092 174.57 17.678 76.406-18.11 145.94-84.022 141.42-166.42-4.873-59.395 33.114 84.388 79.55 60.356 58.485 32.095 139.18 22.158 185.62-2.21 67.661-46.74 68.356-148.02 46.404-218.76-2.422-39.786-93.277-90.13-92.808-77.34 28.479-1.91 62.313-27.98 64.082-57.452 12.679-46.94-34.516-85.327-77.34-88.388-28.005-7.604-60.296.941-77.34 15.468-21.883 13.084-53.595 18.874-59.662 37.565-6.661 7.219-7.25-40.613-13.258-39.775-3.673-2.933-4.62 8.955-4.42 2.21z"/><path style="color:#000;stroke:#fff;stroke-width:6;fill:none" d="M481.21 949.71c2.118-35.346-35.441-55.197-66.343-52.063-34.91-3.516-73.068 4.142-97.676 30.924-11.032 12.975-10.885 43.626-34.279 26.081-33.332.911-33.785 45.757-23.733 68.731 10.901 33.243 53.116 60.982 85.963 44.27-16.5 6.429-29.197 48.23-10.028 65.916 21.335 16.177 51.211 14.028 76.506 12.952 30.19-5.45 51.084-33.196 52.958-63.216 10.397 29.518 48.079 34.932 74.928 30.987 36.277-3.633 47.122-45.416 40.589-76.061 2.234-20.645-27.908-36.194-32.676-42.059 29.372-4.901 22.009-49.702-5.21-52.644-21.233-11.143-55.208 32.562-61 6.18z" transform="translate(1001.5 -2456.2)"/><path style="fill:#fff" d="M476.37 1037.7c-1.105 16.573 3.315 43.642 51.376 20.992s-38.117 19.335-51.376-20.992zM318.71 970.27c9.331 23.548 35.514 59.34 108.22 9.442 71.881-49.335-65.983 61.863-108.22-9.442zM383.82 1052.2c-10.614 16.336-22.503 44.353 32.741 32.013s-44.613 11.158-32.741-32.013z" transform="translate(1001.5 -2456.2)"/></g><g><path style="filter:url(#g);fill:#e6e6e6" d="M60.218 493.4c-20.924-6.509-13.964-22.778 9.67-16.935 17.652 2.63 29.906-34.67 46.32-36.903 19.403-1.631 32.44 30.507 39.877 44.047 13.202 20.964 4.944 17.479 2.583 4.321 4.842-12.756 10.44-51.377 28.175-45.619 10.474 6.574-11.11-29.433-4.437-20.092-7.965-14.6-13.674-41.399 10.115-45.177 16.096-2.248 32.193 1.98 48.28 2.285 18.248 2.808 34.106 12.366 50.4 20.03 17.04.422 44.505 1.432 42.151 24.043.476 18.995 17.361 32.62 18.864 50.848 1.212 13.56 7.428 32.375 25.17 30.97 27.09 10.824 35.25 43.826 18.75 68.097-16.71 12.067-35.47-3.322-54.05-7.516-14.58-17.178-36.825 8.85-45.232 24.541-18.965 13.832-44.955 7.638-64.726-1.148-21.093-5.245-40.424 7.338-59.662 12.936-20.953 1.824-13.627-35.272-35.363-26.188-15.959 11.326-33.68.935-51.16 2.29-15.645.307-18.886 19.484-34.224 21.105-19.47 5.744-34.075-12.333-37.112-28.428-6.802-21.542 23.512-19.75 26.821-35.462-4.001-12.756-6.761-26.582 9.172-33.376 3.508-2.552 7.07-5.187 9.618-8.669z" transform="translate(2594.7 -1311.5)"/><path style="stroke:#fff;stroke-width:6;fill:none" d="M59.681 483.3c-21.74-4.934-13.861-45.069 8.547-39.216 21.501 3.478 39.338-20.035 60.902-11.255 14.422-.693 16.82 32.262 26.597 25.59.7-19.11 31.366-17.303 30.695-36.056-6.252-14.733-18.338-37.069-1.247-48.991 19.946-9.42 42.84-2.627 63.55.306 22.186 3.44 39.942 19.946 63.12 19.14 23.29.295 24.992 25.03 30.343 41.91 8.142 15.603 13.992 32.169 18.73 49.118 11.8 16.076 40.053 12.902 46.036 34.379 9.731 15.742 9.643 43.719-11.155 50.2-21.292 6.71-43.447-1.128-62.638-10.111-22.886-2.897-32.05 26.478-54.03 27.286-21.24 3.358-40.565-9.433-61.297-10.293-18.189 1.685-34.872 18.442-53.627 10.224-8.25-15.15-25.85-29.55-41.65-16.36-17.76.84-42.488-10.96-54.272 8.23-14.193 15.69-43.306 12.27-52.217-7.45-13.28-23.33 20.56-32.77 21.787-52.19 1.431-14.65 6.6-29.93 21.833-34.46z" transform="translate(2594.7 -1311.5)"/><path style="fill:#fff" d="M222.63 531.42c-1.105 16.573 3.315 43.642 51.376 20.992s-38.117 19.335-51.376-20.992zM206.39 461.74c6.125 23.548 23.311 59.34 71.033 9.442 47.182-49.335-43.311 61.863-71.033-9.442zM123.45 499.52c-10.614 16.336-22.503 44.353 32.741 32.013s-44.613 11.158-32.741-32.013z" transform="translate(2594.7 -1311.5)"/></g></g></svg>